<mxfile host="app.diagrams.net" modified="2022-11-29T13:00:38.629Z" agent="5.0 (Windows NT 10.0; Win64; x64) AppleWebKit/537.36 (KHTML, like Gecko) Chrome/107.0.0.0 Safari/537.36" version="20.6.0" etag="hF7Fp3vHeTZdxcDlI0vG" type="github">
  <diagram id="M6QvfN0S-NYjlwqPsM1h" name="หน้า-1">
    <mxGraphModel dx="914" dy="465" grid="1" gridSize="10" guides="1" tooltips="1" connect="1" arrows="1" fold="1" page="1" pageScale="1" pageWidth="827" pageHeight="1169" math="0" shadow="0">
      <root>
        <mxCell id="0" />
        <mxCell id="1" parent="0" />
        <mxCell id="ieZYi29dR5ZBG11HQ0zJ-7" value="" style="edgeStyle=orthogonalEdgeStyle;rounded=0;orthogonalLoop=1;jettySize=auto;html=1;fontSize=18;" edge="1" parent="1" source="ieZYi29dR5ZBG11HQ0zJ-1" target="ieZYi29dR5ZBG11HQ0zJ-6">
          <mxGeometry relative="1" as="geometry" />
        </mxCell>
        <mxCell id="ieZYi29dR5ZBG11HQ0zJ-1" value="&lt;font style=&quot;font-size: 18px;&quot;&gt;เริ่มต้น&lt;/font&gt;" style="rounded=1;whiteSpace=wrap;html=1;fillColor=#FF99FF;" vertex="1" parent="1">
          <mxGeometry x="490" y="40" width="120" height="50" as="geometry" />
        </mxCell>
        <mxCell id="ieZYi29dR5ZBG11HQ0zJ-2" style="edgeStyle=orthogonalEdgeStyle;rounded=0;orthogonalLoop=1;jettySize=auto;html=1;exitX=0.5;exitY=1;exitDx=0;exitDy=0;fontSize=18;" edge="1" parent="1" source="ieZYi29dR5ZBG11HQ0zJ-1" target="ieZYi29dR5ZBG11HQ0zJ-1">
          <mxGeometry relative="1" as="geometry" />
        </mxCell>
        <mxCell id="ieZYi29dR5ZBG11HQ0zJ-10" value="" style="edgeStyle=orthogonalEdgeStyle;rounded=0;orthogonalLoop=1;jettySize=auto;html=1;fontSize=18;" edge="1" parent="1" source="ieZYi29dR5ZBG11HQ0zJ-6" target="ieZYi29dR5ZBG11HQ0zJ-9">
          <mxGeometry relative="1" as="geometry" />
        </mxCell>
        <mxCell id="ieZYi29dR5ZBG11HQ0zJ-6" value="&lt;font style=&quot;font-size: 18px;&quot;&gt;เเจ้กติกา เเละวิธีการเล่น&lt;/font&gt;" style="shape=parallelogram;perimeter=parallelogramPerimeter;whiteSpace=wrap;html=1;fixedSize=1;fillColor=#FF99FF;rounded=1;" vertex="1" parent="1">
          <mxGeometry x="450" y="130" width="200" height="60" as="geometry" />
        </mxCell>
        <mxCell id="ieZYi29dR5ZBG11HQ0zJ-22" value="" style="edgeStyle=orthogonalEdgeStyle;rounded=0;orthogonalLoop=1;jettySize=auto;html=1;fontSize=18;" edge="1" parent="1" source="ieZYi29dR5ZBG11HQ0zJ-9" target="ieZYi29dR5ZBG11HQ0zJ-16">
          <mxGeometry relative="1" as="geometry" />
        </mxCell>
        <mxCell id="ieZYi29dR5ZBG11HQ0zJ-9" value="&lt;font style=&quot;font-size: 18px;&quot;&gt;กดเริ่มเกมส์&lt;/font&gt;" style="rhombus;whiteSpace=wrap;html=1;fillColor=#FF99FF;rounded=1;" vertex="1" parent="1">
          <mxGeometry x="440" y="230" width="220" height="80" as="geometry" />
        </mxCell>
        <mxCell id="ieZYi29dR5ZBG11HQ0zJ-21" value="" style="edgeStyle=orthogonalEdgeStyle;rounded=0;orthogonalLoop=1;jettySize=auto;html=1;fontSize=18;" edge="1" parent="1" source="ieZYi29dR5ZBG11HQ0zJ-16" target="ieZYi29dR5ZBG11HQ0zJ-20">
          <mxGeometry relative="1" as="geometry" />
        </mxCell>
        <mxCell id="ieZYi29dR5ZBG11HQ0zJ-16" value="รับข้อมูลจากแป้นพิมพ์" style="rounded=0;whiteSpace=wrap;html=1;fontSize=18;fillColor=#FF99FF;" vertex="1" parent="1">
          <mxGeometry x="465" y="360" width="170" height="60" as="geometry" />
        </mxCell>
        <mxCell id="ieZYi29dR5ZBG11HQ0zJ-24" value="" style="edgeStyle=orthogonalEdgeStyle;rounded=0;orthogonalLoop=1;jettySize=auto;html=1;fontSize=18;" edge="1" parent="1" source="ieZYi29dR5ZBG11HQ0zJ-20" target="ieZYi29dR5ZBG11HQ0zJ-23">
          <mxGeometry relative="1" as="geometry" />
        </mxCell>
        <mxCell id="ieZYi29dR5ZBG11HQ0zJ-26" value="" style="edgeStyle=orthogonalEdgeStyle;rounded=0;orthogonalLoop=1;jettySize=auto;html=1;fontSize=18;" edge="1" parent="1" source="ieZYi29dR5ZBG11HQ0zJ-20" target="ieZYi29dR5ZBG11HQ0zJ-25">
          <mxGeometry relative="1" as="geometry" />
        </mxCell>
        <mxCell id="ieZYi29dR5ZBG11HQ0zJ-20" value="แสดงผล" style="rounded=0;whiteSpace=wrap;html=1;fontSize=18;fillColor=#FF99FF;" vertex="1" parent="1">
          <mxGeometry x="460" y="470" width="180" height="60" as="geometry" />
        </mxCell>
        <mxCell id="ieZYi29dR5ZBG11HQ0zJ-23" value="แพ้" style="rounded=0;whiteSpace=wrap;html=1;fontSize=18;fillColor=#FF99FF;" vertex="1" parent="1">
          <mxGeometry x="750" y="470" width="120" height="60" as="geometry" />
        </mxCell>
        <mxCell id="ieZYi29dR5ZBG11HQ0zJ-25" value="ชนะ" style="rounded=0;whiteSpace=wrap;html=1;fontSize=18;fillColor=#FF99FF;" vertex="1" parent="1">
          <mxGeometry x="230" y="470" width="120" height="60" as="geometry" />
        </mxCell>
        <mxCell id="ieZYi29dR5ZBG11HQ0zJ-31" value="" style="endArrow=classic;html=1;rounded=0;fontSize=18;exitX=0.419;exitY=-0.05;exitDx=0;exitDy=0;exitPerimeter=0;" edge="1" parent="1" source="ieZYi29dR5ZBG11HQ0zJ-23">
          <mxGeometry width="50" height="50" relative="1" as="geometry">
            <mxPoint x="800" y="460" as="sourcePoint" />
            <mxPoint x="640" y="390" as="targetPoint" />
            <Array as="points">
              <mxPoint x="800" y="390" />
            </Array>
          </mxGeometry>
        </mxCell>
        <mxCell id="ieZYi29dR5ZBG11HQ0zJ-32" value="" style="endArrow=none;html=1;rounded=0;fontSize=18;exitX=0.5;exitY=1;exitDx=0;exitDy=0;entryX=0.5;entryY=1;entryDx=0;entryDy=0;" edge="1" parent="1" source="ieZYi29dR5ZBG11HQ0zJ-25" target="ieZYi29dR5ZBG11HQ0zJ-23">
          <mxGeometry width="50" height="50" relative="1" as="geometry">
            <mxPoint x="460" y="390" as="sourcePoint" />
            <mxPoint x="510" y="340" as="targetPoint" />
            <Array as="points">
              <mxPoint x="290" y="630" />
              <mxPoint x="810" y="630" />
            </Array>
          </mxGeometry>
        </mxCell>
        <mxCell id="ieZYi29dR5ZBG11HQ0zJ-33" value="" style="endArrow=none;html=1;rounded=0;fontSize=18;" edge="1" parent="1">
          <mxGeometry width="50" height="50" relative="1" as="geometry">
            <mxPoint x="560" y="630" as="sourcePoint" />
            <mxPoint x="560" y="710" as="targetPoint" />
          </mxGeometry>
        </mxCell>
        <mxCell id="ieZYi29dR5ZBG11HQ0zJ-34" value="&lt;h5&gt;สิ้นสุด&lt;/h5&gt;" style="rounded=1;whiteSpace=wrap;html=1;fontSize=18;fillColor=#FF99FF;" vertex="1" parent="1">
          <mxGeometry x="480" y="710" width="160" height="70" as="geometry" />
        </mxCell>
        <mxCell id="ieZYi29dR5ZBG11HQ0zJ-35" value="&lt;font style=&quot;font-size: 14px;&quot;&gt;น้อยกว่า10&lt;/font&gt;" style="text;html=1;strokeColor=none;fillColor=none;align=center;verticalAlign=middle;whiteSpace=wrap;rounded=0;fontSize=18;" vertex="1" parent="1">
          <mxGeometry x="370" y="440" width="70" height="30" as="geometry" />
        </mxCell>
        <mxCell id="ieZYi29dR5ZBG11HQ0zJ-36" value="&lt;font style=&quot;font-size: 14px;&quot;&gt;มากกว่า 10&lt;/font&gt;" style="text;html=1;strokeColor=none;fillColor=none;align=center;verticalAlign=middle;whiteSpace=wrap;rounded=0;fontSize=14;" vertex="1" parent="1">
          <mxGeometry x="670" y="450" width="70" height="30" as="geometry" />
        </mxCell>
      </root>
    </mxGraphModel>
  </diagram>
</mxfile>
